<svg xmlns="http://www.w3.org/2000/svg" width="20" height="20" fill="none" viewBox="0 0 20 20"><path fill="#afb1b8" d="M20 3.799a8.6 8.6 0 0 1-2.363.647 4.08 4.08 0 0 0 1.804-2.266 8.2 8.2 0 0 1-2.6.992A4.099 4.099 0 0 0 9.75 5.977c0 .325.027.638.095.935-3.409-.166-6.425-1.8-8.451-4.288A4.13 4.13 0 0 0 .83 4.695c0 1.42.732 2.679 1.822 3.407A4.05 4.05 0 0 1 .8 7.597v.045a4.12 4.12 0 0 0 3.285 4.03 4 4 0 0 1-1.075.134c-.262 0-.527-.015-.776-.07.531 1.624 2.039 2.818 3.831 2.856a8.24 8.24 0 0 1-5.084 1.75A8 8 0 0 1 0 16.284a11.54 11.54 0 0 0 6.29 1.84c7.545 0 11.67-6.25 11.67-11.667q0-.272-.015-.53A8.2 8.2 0 0 0 20 3.798"/></svg>